<?xml version="1.0" encoding="utf-8"?>
<!-- Generator: Adobe Illustrator 23.0.2, SVG Export Plug-In . SVG Version: 6.00 Build 0)  -->
<svg version="1.1" id="Layer" xmlns="http://www.w3.org/2000/svg" xmlns:xlink="http://www.w3.org/1999/xlink" x="0px" y="0px"
	 viewBox="0 0 24 24" enable-background="new 0 0 24 24" xml:space="preserve">
<g>
	<path fill="#FFFFFF" d="M15.91,15.91l5.63,5.63L15.91,15.91z M9.5,16C5.92,16,3,13.08,3,9.5S5.92,3,9.5,3S16,5.92,16,9.5
		c0,1.43-0.46,2.79-1.34,3.94l-0.53,0.7l-0.7,0.53C12.29,15.54,10.93,16,9.5,16z"/>
	<path fill="#333333" d="M9.5,4C12.53,4,15,6.47,15,9.5c0,1.21-0.39,2.36-1.13,3.33l-0.45,0.59l-0.59,0.45
		C11.86,14.61,10.71,15,9.5,15C6.47,15,4,12.53,4,9.5S6.47,4,9.5,4 M9.5,2C5.36,2,2,5.36,2,9.5S5.36,17,9.5,17
		c1.71,0,3.28-0.58,4.54-1.54l7.07,7.07c0.12,0.12,0.27,0.17,0.42,0.17s0.3-0.06,0.42-0.17l0.58-0.58c0.23-0.23,0.23-0.61,0-0.84
		l-7.07-7.07C16.42,12.78,17,11.21,17,9.5C17,5.36,13.64,2,9.5,2L9.5,2z"/>
</g>
</svg>
