<?xml version="1.0" encoding="utf-8"?>
<!-- Generator: Adobe Illustrator 23.0.2, SVG Export Plug-In . SVG Version: 6.00 Build 0)  -->
<svg version="1.1" id="レイヤー_1" xmlns="http://www.w3.org/2000/svg" xmlns:xlink="http://www.w3.org/1999/xlink" x="0px"
	 y="0px" viewBox="0 0 24 24" style="enable-background:new 0 0 24 24;" xml:space="preserve">
<style type="text/css">
	.st0{fill:#FF710B;}
	.st1{fill:#EEEEEE;}
	.st2{fill:#F2F2F2;}
	.st3{fill:#7EC2FE;}
</style>
<circle class="st0" cx="14.5" cy="8.5" r="1.5"/>
<g>
	<path class="st1" d="M20.2,6c1,0,1.8,0.8,1.8,1.8v7.4c0,1-0.8,1.8-1.8,1.8H3.8c-1,0-1.8-0.8-1.8-1.8V7.8C2,6.8,2.8,6,3.8,6H20.2
		 M20.2,5H3.8C2.2,5,1,6.2,1,7.8v7.4C1,16.8,2.2,18,3.8,18h16.4c1.5,0,2.8-1.2,2.8-2.8V7.8C23,6.2,21.8,5,20.2,5L20.2,5z"/>
</g>
<g>
	<path class="st2" d="M10.1,11.5l0.5-1.8h2.7l0.4,1.2L13,10.6l-0.6,0.3l-0.8-0.3l-0.8,0.2l-0.2,0.7l1-0.3l0.7,0.3l0.7-0.3l0.9,0.4
		l0.6-0.2L13.7,9h-3.5l-0.7,2.5C9.5,11.5,10.1,11.5,10.1,11.5z"/>
	<polygon class="st3" points="10.1,11.5 9.2,14.8 15,14.8 14.1,12.1 14.7,11.9 15.9,15.3 8.4,15.3 9.5,11.5 	"/>
</g>
</svg>
