<?xml version="1.0" encoding="utf-8"?>
<!-- Generator: Adobe Illustrator 23.0.2, SVG Export Plug-In . SVG Version: 6.00 Build 0)  -->
<svg version="1.1" id="レイヤー_1" xmlns="http://www.w3.org/2000/svg" xmlns:xlink="http://www.w3.org/1999/xlink" x="0px"
	 y="0px" viewBox="0 0 24 24" enable-background="new 0 0 24 24" xml:space="preserve">
<circle fill="#D91D25" cx="14.5" cy="8.5" r="1.5"/>
<g>
	<path fill="#333333" d="M20.21,6C21.2,6,22,6.8,22,7.79v7.42C22,16.2,21.2,17,20.21,17H3.79C2.8,17,2,16.2,2,15.21V7.79
		C2,6.8,2.8,6,3.79,6H20.21 M20.21,5H3.79C2.25,5,1,6.25,1,7.79v7.42C1,16.75,2.25,18,3.79,18h16.42c1.54,0,2.79-1.25,2.79-2.79
		V7.79C23,6.25,21.75,5,20.21,5L20.21,5z"/>
</g>
<g>
	<path fill="#F2F2F2" d="M10.13,11.46l0.51-1.82h2.66l0.41,1.19l-0.72-0.26l-0.61,0.29l-0.76-0.29l-0.8,0.17l-0.2,0.7l1.01-0.28
		l0.73,0.32l0.67-0.29l0.93,0.38l0.59-0.21L13.69,9H10.2l-0.7,2.46C9.5,11.46,10.14,11.47,10.13,11.46z"/>
	<polygon fill="#20A4FE" points="10.13,11.46 9.22,14.75 15.03,14.75 14.13,12.11 14.74,11.88 15.88,15.33 8.39,15.33 9.5,11.46 	
		"/>
</g>
</svg>
